<?xml version="1.0" encoding="UTF-8"?>
<!DOCTYPE svg PUBLIC "-//W3C//DTD SVG 1.1//EN" "http://www.w3.org/Graphics/SVG/1.1/DTD/svg11.dtd">
<svg xmlns="http://www.w3.org/2000/svg" version="1.1" width="3840px" height="2160px" style="shape-rendering:geometricPrecision; text-rendering:geometricPrecision; image-rendering:optimizeQuality; fill-rule:evenodd; clip-rule:evenodd" xmlns:xlink="http://www.w3.org/1999/xlink">
<g><path style="opacity:0.991" fill="#000000" d="M 2135.5,587.5 C 2136.22,587.918 2136.72,588.584 2137,589.5C 2144.26,588.185 2151.76,587.518 2159.5,587.5C 2186.64,588.472 2213.64,590.805 2240.5,594.5C 2275.7,598.057 2312.2,606.724 2350,620.5C 2488.23,670.393 2583.23,764.393 2635,902.5C 2662.63,982.083 2670.79,1064.75 2659.5,1150.5C 2659.63,1152.42 2659.96,1154.26 2660.5,1156C 2646.59,1247.57 2610.09,1329.74 2551,1402.5C 2529.42,1426.75 2505.92,1448.92 2480.5,1469C 2463.91,1480.38 2447.57,1491.38 2431.5,1502C 2405.58,1515.41 2379.41,1527.57 2353,1538.5C 2340.16,1541.44 2327.33,1545.27 2314.5,1550C 2300.2,1553.66 2285.87,1557.16 2271.5,1560.5C 2269.07,1560.69 2266.57,1560.69 2264,1560.5C 2263.33,1561.17 2262.67,1561.83 2262,1562.5C 2260.73,1562.38 2259.4,1562.05 2258,1561.5C 2257.33,1562.17 2256.67,1562.83 2256,1563.5C 2254.73,1563.38 2253.4,1563.05 2252,1562.5C 2251.33,1563.17 2250.67,1563.83 2250,1564.5C 2248.73,1564.38 2247.4,1564.05 2246,1563.5C 2236.91,1565.1 2227.74,1566.76 2218.5,1568.5C 2215.12,1566.87 2211.62,1567.2 2208,1569.5C 2206.32,1569.19 2204.65,1568.86 2203,1568.5C 2188.56,1570.07 2174.06,1571.07 2159.5,1571.5C 2152.1,1571.48 2144.93,1570.81 2138,1569.5C 2137.67,1570.17 2137.33,1570.83 2137,1571.5C 2130.76,1569.78 2124.26,1568.78 2117.5,1568.5C 2114.55,1568.42 2111.71,1568.75 2109,1569.5C 2108,1568.83 2107,1568.17 2106,1567.5C 2103,1567.83 2100,1568.17 2097,1568.5C 2096.5,1568 2096,1567.5 2095.5,1567C 2091.98,1566.62 2088.48,1566.12 2085,1565.5C 2049.58,1561.98 2012.75,1553.31 1974.5,1539.5C 1973.2,1540.72 1972.2,1540.38 1971.5,1538.5C 1957.33,1534.25 1943,1528.75 1928.5,1522C 1802.23,1460.77 1717.57,1363.44 1674.5,1230C 1672.02,1217.92 1668.85,1205.42 1665,1192.5C 1641.39,1084.35 1651.05,978.014 1694,873.5C 1720.28,811.844 1758.78,758.677 1809.5,714C 1820.61,703.29 1832.27,693.29 1844.5,684C 1858.76,673.909 1873.43,664.409 1888.5,655.5C 1912.64,643.292 1937.14,631.959 1962,621.5C 1970.11,619.751 1978.27,617.251 1986.5,614C 2007.77,607.554 2028.93,602.054 2050,597.5C 2051.27,597.616 2052.6,597.949 2054,598.5C 2055.31,596.342 2056.98,596.009 2059,597.5C 2059.67,596.833 2060.33,596.167 2061,595.5C 2062.12,595.665 2063.28,595.998 2064.5,596.5C 2067.62,595.747 2070.79,594.747 2074,593.5C 2074.72,594.059 2075.56,594.392 2076.5,594.5C 2096.45,592.004 2116.11,589.67 2135.5,587.5 Z M 2136.5,610.5 C 2151.96,611.418 2166.96,611.418 2181.5,610.5C 2233.83,614.903 2282.16,632.403 2326.5,663C 2328.75,664.257 2330.08,666.09 2330.5,668.5C 2337.54,672.204 2344.2,676.704 2350.5,682C 2363.77,695.598 2376.6,709.432 2389,723.5C 2436.25,789.473 2466.42,862.306 2479.5,942C 2479.76,943.261 2480.43,944.261 2481.5,945C 2480.94,945.725 2480.61,946.558 2480.5,947.5C 2482.46,958.384 2484.46,969.217 2486.5,980C 2485.91,981.889 2485.58,983.889 2485.5,986C 2487.2,987.525 2487.54,989.525 2486.5,992C 2493.14,1051.33 2493.14,1110.66 2486.5,1170C 2487.71,1172.57 2487.38,1174.73 2485.5,1176.5C 2485.72,1177.97 2486.06,1179.47 2486.5,1181C 2484.6,1192.65 2482.6,1204.31 2480.5,1216C 2480.64,1216.77 2480.98,1217.44 2481.5,1218C 2475.84,1245.16 2469,1272.66 2461,1300.5C 2453.93,1318.08 2447.43,1335.58 2441.5,1353C 2433.19,1368.45 2425.02,1383.95 2417,1399.5C 2407.91,1413.41 2398.74,1426.58 2389.5,1439C 2377.5,1452.33 2365.17,1465.33 2352.5,1478C 2345.26,1483.44 2337.93,1488.61 2330.5,1493.5C 2330.72,1494.68 2330.39,1495.68 2329.5,1496.5C 2260.51,1542.19 2186.01,1557.86 2106,1543.5C 2059.17,1536.18 2017.01,1517.35 1979.5,1487C 1939.79,1453.29 1908.29,1413.12 1885,1366.5C 1878.28,1350.05 1871.28,1333.72 1864,1317.5C 1823.21,1194.67 1814.71,1068.67 1838.5,939.5C 1841.53,919.349 1846.2,899.349 1852.5,879.5C 1851.89,877.316 1852.56,875.316 1854.5,873.5C 1873.58,798.888 1911.25,734.721 1967.5,681C 2014.72,640.1 2068.89,616.934 2130,611.5C 2131.76,611.544 2133.43,611.878 2135,612.5C 2135.72,611.956 2136.22,611.289 2136.5,610.5 Z"/></g>
<g><path style="opacity:0.994" fill="#000000" d="M 175.5,608.5 C 341.5,608.333 507.5,608.5 673.5,609C 709.799,610.502 745.466,614.336 780.5,620.5C 807.593,624.021 834.593,630.688 861.5,640.5C 929.174,659.762 990.174,694.262 1044.5,744C 1087.97,786.389 1120.97,834.722 1143.5,889C 1143.17,889.333 1142.83,889.667 1142.5,890C 1159.96,929.168 1170.29,969.168 1173.5,1010C 1180.14,1055.63 1180.14,1101.3 1173.5,1147C 1169.75,1184.57 1159.42,1221.4 1142.5,1257.5C 1142.71,1258.09 1143.04,1258.59 1143.5,1259C 1123.49,1302.57 1097.66,1342.07 1066,1377.5C 1053.14,1389.36 1040.64,1401.53 1028.5,1414C 1022.2,1417.32 1016.86,1421.82 1012.5,1427.5C 973.894,1456.91 934.061,1479.91 893,1496.5C 875.963,1505.28 858.296,1511.62 840,1515.5C 839.147,1517.12 838.147,1517.46 837,1516.5C 836.147,1518.12 835.147,1518.46 834,1517.5C 833.147,1519.12 832.147,1519.46 831,1518.5C 828.398,1519.48 825.898,1520.64 823.5,1522C 802.352,1527.39 781.185,1532.55 760,1537.5C 758.883,1537.33 757.716,1537 756.5,1536.5C 753.954,1537.66 751.454,1538.66 749,1539.5C 745.878,1539.62 742.711,1539.62 739.5,1539.5C 737.758,1541.97 735.925,1541.97 734,1539.5C 732.042,1540.95 730.042,1541.29 728,1540.5C 722.589,1541.62 717.089,1542.45 711.5,1543C 710.32,1544.32 708.82,1544.48 707,1543.5C 704.54,1544.31 702.04,1544.98 699.5,1545.5C 698.228,1545.43 697.062,1545.1 696,1544.5C 673.344,1546.77 650.677,1548.77 628,1550.5C 479.333,1550.5 330.667,1550.5 182,1550.5C 172.399,1549.23 168.733,1543.9 171,1534.5C 173.346,1531.5 176.346,1529.5 180,1528.5C 208.369,1528.77 237.702,1529.11 268,1529.5C 290.177,1525.99 301.843,1512.99 303,1490.5C 303.994,1214.14 303.661,937.809 302,661.5C 299.284,646.416 290.784,636.249 276.5,631C 269.98,629.99 263.48,629.157 257,628.5C 230,628.833 203,629.167 176,629.5C 169.876,625.854 167.876,620.52 170,613.5C 171.406,611.256 173.239,609.59 175.5,608.5 Z M 481.5,628.5 C 547.187,628.597 611.687,628.597 675,628.5C 676.704,630.161 678.871,630.495 681.5,629.5C 788.912,640.605 872.412,690.938 932,780.5C 942.423,799.011 952.589,817.678 962.5,836.5C 962.291,837.086 961.957,837.586 961.5,838C 975.846,866.153 986.179,896.153 992.5,928C 993.167,928.667 993.833,929.333 994.5,930C 994.525,932.012 994.525,934.012 994.5,936C 1000.24,959.608 1004.58,983.774 1007.5,1008.5C 1006.1,1011.04 1006.43,1013.21 1008.5,1015C 1007.88,1016.57 1007.54,1018.24 1007.5,1020C 1015.57,1105.5 1007.07,1188 982,1267.5C 975.833,1284.77 968.999,1301.27 961.5,1317C 961.957,1317.41 962.291,1317.91 962.5,1318.5C 949.453,1344.02 934.62,1368.35 918,1391.5C 911.605,1397.9 905.939,1404.9 901,1412.5C 891.736,1421.55 882.57,1430.72 873.5,1440C 825.843,1480.33 771.51,1507 710.5,1520C 691.133,1524.29 671.633,1527.46 652,1529.5C 648.333,1529.17 644.667,1528.83 641,1528.5C 633.667,1529.17 626.333,1529.83 619,1530.5C 574.925,1530.62 530.092,1530.46 484.5,1530C 474.405,1529.58 468.239,1524.41 466,1514.5C 464.861,1488.53 464.361,1462.53 464.5,1436.5C 465.267,1172.5 465.767,908.501 466,644.5C 467.402,635.267 472.569,629.934 481.5,628.5 Z"/></g>
<g><path style="opacity:0.991" fill="#000000" d="M 1216.5,608.5 C 1347.17,608.333 1477.83,608.5 1608.5,609C 1617.46,609.95 1620.96,614.783 1619,623.5C 1618.17,625.667 1616.67,627.167 1614.5,628C 1587.5,628.333 1560.5,628.667 1533.5,629C 1514.94,628.793 1502.44,637.96 1496,656.5C 1495.67,658.833 1495.33,661.167 1495,663.5C 1494.33,940.5 1494.33,1217.5 1495,1494.5C 1498.97,1517.15 1512.31,1529.15 1535,1530.5C 1560.41,1530.04 1585.58,1529.71 1610.5,1529.5C 1619.06,1530.94 1622.22,1535.94 1620,1544.5C 1619.5,1546.33 1618.33,1547.5 1616.5,1548C 1613.77,1548.21 1611.27,1549.04 1609,1550.5C 1479.35,1549.86 1349.18,1549.86 1218.5,1550.5C 1210.77,1547.88 1208.77,1543.05 1212.5,1536C 1212.04,1535.59 1211.71,1535.09 1211.5,1534.5C 1213.5,1532.83 1215.5,1531.17 1217.5,1529.5C 1247.56,1530.14 1277.73,1530.14 1308,1529.5C 1322.23,1522.78 1331.06,1511.78 1334.5,1496.5C 1333.14,1494.69 1333.47,1493.19 1335.5,1492C 1334.17,1217.33 1334.17,942.667 1335.5,668C 1334.83,667.333 1334.17,666.667 1333.5,666C 1334.78,648.671 1326.61,636.171 1309,628.5C 1308.59,628.957 1308.09,629.291 1307.5,629.5C 1277.54,628.674 1247.54,628.174 1217.5,628C 1214.57,626.729 1211.9,625.062 1209.5,623C 1209.5,620.333 1209.5,617.667 1209.5,615C 1211.73,612.6 1214.06,610.433 1216.5,608.5 Z"/></g>
<g><path style="opacity:0.991" fill="#000000" d="M 2696.5,608.5 C 2840.68,608.504 2984.68,608.504 3128.5,608.5C 3160.73,610.414 3192.73,613.081 3224.5,616.5C 3271.68,621.965 3317.68,633.799 3362.5,652C 3396.29,666.901 3425.96,687.734 3451.5,714.5C 3483.94,754.658 3500.44,800.325 3501,851.5C 3502.42,883.157 3498.42,913.49 3489,942.5C 3481.47,960.56 3472.14,977.56 3461,993.5C 3455.06,1000.49 3448.89,1007.33 3442.5,1014C 3439.33,1015.75 3436.33,1017.75 3433.5,1020C 3428.82,1025.68 3423.49,1030.68 3417.5,1035C 3373.74,1063.84 3326.4,1082.68 3275.5,1091.5C 3255.69,1095.88 3235.86,1099.88 3216,1103.5C 3215.28,1102.94 3214.44,1102.61 3213.5,1102.5C 3201.8,1103.87 3190.13,1105.37 3178.5,1107C 3196.52,1110.78 3214.18,1115.78 3231.5,1122C 3299.86,1151.15 3356.52,1195.15 3401.5,1254C 3401.17,1254.33 3400.83,1254.67 3400.5,1255C 3408.7,1266.88 3416.53,1279.04 3424,1291.5C 3448.38,1339.26 3474.04,1386.26 3501,1432.5C 3512.6,1450.03 3524.93,1467.03 3538,1483.5C 3546.78,1493.61 3556.28,1503.11 3566.5,1512C 3583.62,1525.89 3602.96,1535.56 3624.5,1541C 3638.23,1541.9 3651.89,1542.9 3665.5,1544C 3670.97,1550.35 3670.63,1556.51 3664.5,1562.5C 3657.32,1564.97 3650.15,1566.31 3643,1566.5C 3642.33,1567.17 3641.67,1567.83 3641,1568.5C 3638.75,1568.37 3636.58,1568.04 3634.5,1567.5C 3632.94,1568.07 3631.44,1568.74 3630,1569.5C 3611.18,1568.47 3592.85,1568.47 3575,1569.5C 3573.91,1568.71 3572.75,1568.04 3571.5,1567.5C 3567.88,1568.19 3564.38,1568.52 3561,1568.5C 3560.5,1568 3560,1567.5 3559.5,1567C 3512.85,1563.03 3468.19,1549.03 3425.5,1525C 3417.39,1519.89 3409.56,1514.39 3402,1508.5C 3401.67,1508.83 3401.33,1509.17 3401,1509.5C 3387.61,1497.11 3373.95,1485.11 3360,1473.5C 3347.53,1459.25 3335.53,1444.58 3324,1429.5C 3309.5,1405.86 3296,1382.69 3283.5,1360C 3283.96,1359.59 3284.29,1359.09 3284.5,1358.5C 3268.17,1326.67 3252.67,1295.33 3238,1264.5C 3231.45,1254.89 3226.29,1245.06 3222.5,1235C 3205.82,1206.67 3185.82,1181 3162.5,1158C 3127.11,1127.14 3085.78,1110.64 3038.5,1108.5C 3020.99,1109.05 3003.33,1109.05 2985.5,1108.5C 2985.01,1239.87 2985.51,1371.2 2987,1502.5C 2990.81,1515.64 2999.31,1524.14 3012.5,1528C 3016.52,1528.15 3020.36,1528.98 3024,1530.5C 3052.22,1529.78 3080.56,1529.44 3109,1529.5C 3117.06,1531.48 3119.73,1536.48 3117,1544.5C 3114.22,1547.14 3111.06,1549.14 3107.5,1550.5C 2972.94,1550.05 2837.94,1550.05 2702.5,1550.5C 2695.01,1548.18 2692.17,1543.18 2694,1535.5C 2695.36,1532.64 2697.53,1530.64 2700.5,1529.5C 2732.22,1529.69 2763.72,1529.69 2795,1529.5C 2807.99,1524.38 2816.82,1515.22 2821.5,1502C 2820.54,1500.85 2820.88,1499.85 2822.5,1499C 2821.14,1497.06 2821.47,1495.4 2823.5,1494C 2822.17,1217.33 2822.17,940.667 2823.5,664C 2821.47,662.604 2821.14,660.938 2822.5,659C 2821.64,658.311 2820.98,657.478 2820.5,656.5C 2819.27,645.366 2813.27,636.866 2802.5,631C 2800.5,630.333 2798.5,629.667 2796.5,629C 2764.5,628.667 2732.5,628.333 2700.5,628C 2692.06,625.947 2689.22,620.78 2692,612.5C 2693.4,610.93 2694.9,609.596 2696.5,608.5 Z M 3015.5,628.5 C 3049.75,628.57 3083.92,628.57 3118,628.5C 3120.01,630.563 3122.34,630.896 3125,629.5C 3157.93,633.68 3190.1,641.847 3221.5,654C 3234.66,661.08 3247.66,668.413 3260.5,676C 3281.72,691.224 3299.56,709.724 3314,731.5C 3326.35,753.04 3335.52,775.873 3341.5,800C 3340.1,801.649 3340.44,802.982 3342.5,804C 3341.94,804.725 3341.61,805.558 3341.5,806.5C 3348.86,846.972 3347.36,887.305 3337,927.5C 3329.77,948.627 3320.43,968.627 3309,987.5C 3299.29,998.888 3289.12,1010.06 3278.5,1021C 3268.57,1027.92 3258.9,1035.25 3249.5,1043C 3201.21,1069.99 3149.54,1084.65 3094.5,1087C 3057.83,1087.5 3021.17,1087.67 2984.5,1087.5C 2984.82,949.378 2984.49,811.878 2983.5,675C 2982.8,662.629 2985.63,651.129 2992,640.5C 2998.77,633.534 3006.6,629.534 3015.5,628.5 Z"/></g>
</svg>
